<svg xmlns="http://www.w3.org/2000/svg" viewBox="0 0 32 32">
  <path d="M16 2L4 8v8c0 6.627 5.373 12 12 12s12-5.373 12-12V8L16 2z" fill="url(#g)" opacity="0.9"/>
  <path d="M12 10 Q16 13 20 10 Q16 7 12 10" stroke="#22d3ee" stroke-width="1.5" fill="none" stroke-linecap="round"/>
  <path d="M12 16 Q16 19 20 16 Q16 13 12 16" stroke="#8b5cf6" stroke-width="1.5" fill="none" stroke-linecap="round"/>
  <path d="M12 22 Q16 25 20 22 Q16 19 12 22" stroke="#22d3ee" stroke-width="1.5" fill="none" stroke-linecap="round"/>
  <line x1="12" y1="10" x2="12" y2="22" stroke="rgba(34,211,238,0.4)" stroke-width="1"/>
  <line x1="20" y1="10" x2="20" y2="22" stroke="rgba(139,92,246,0.4)" stroke-width="1"/>
  <defs>
    <linearGradient id="g" x1="0" y1="0" x2="1" y2="1">
      <stop offset="0%" stop-color="#0e1f3a"/>
      <stop offset="100%" stop-color="#1a0533"/>
    </linearGradient>
  </defs>
</svg>
